<svg xmlns="http://www.w3.org/2000/svg" width="390" height="844" viewBox="0 0 390 844" font-family="Inter, Helvetica, Arial, sans-serif">
  <defs><clipPath id="s"><rect width="390" height="844" rx="28"/></clipPath></defs>
  <g clip-path="url(#s)">
    <rect width="390" height="844" fill="#F6F4ED"/>

    <!-- App bar -->
    <rect width="390" height="118" fill="#1F5632"/>
    <text x="20" y="30" fill="#DCE8DC" font-size="13" font-weight="600">9:41</text>
    <rect x="330" y="20" width="18" height="10" rx="2" fill="none" stroke="#DCE8DC" stroke-width="1.5"/>
    <rect x="332" y="22" width="11" height="6" fill="#DCE8DC"/>
    <text x="20" y="60" fill="#9FC2A6" font-size="10" letter-spacing="2.5" font-weight="700">SUN JUL 12 · 10:00 AM · VICTORY FIELD</text>
    <text x="20" y="90" fill="#FFFFFF" font-size="23" font-weight="800">vs. Ridgewood Rockets</text>

    <!-- Tabs -->
    <rect x="0" y="118" width="390" height="46" fill="#FFFFFF" stroke="#E6E2D4"/>
    <text x="65" y="147" text-anchor="middle" fill="#B85C38" font-size="14" font-weight="800">Availability</text>
    <rect x="24" y="160" width="82" height="4" rx="2" fill="#B85C38"/>
    <text x="195" y="147" text-anchor="middle" fill="#8A8676" font-size="14" font-weight="600">Lineup</text>
    <text x="322" y="147" text-anchor="middle" fill="#8A8676" font-size="14" font-weight="600">Scorecard</text>

    <!-- Summary chips -->
    <rect x="16" y="180" width="70" height="30" rx="15" fill="#1F5632"/>
    <text x="51" y="200" text-anchor="middle" fill="#FFFFFF" font-size="12" font-weight="800">9 IN</text>
    <rect x="94" y="180" width="118" height="30" rx="15" fill="#F4E3BE"/>
    <text x="153" y="200" text-anchor="middle" fill="#8A6410" font-size="12" font-weight="800">2 TENTATIVE</text>
    <rect x="220" y="180" width="70" height="30" rx="15" fill="#F1D4CB"/>
    <text x="255" y="200" text-anchor="middle" fill="#A93B26" font-size="12" font-weight="800">1 OUT</text>

    <!-- Rows: name left, 3-state segmented control right (In/Tent/Out) -->
    <!-- Row 1: Keith IN -->
    <g>
      <rect x="16" y="226" width="358" height="56" rx="14" fill="#FFFFFF" stroke="#E6E2D4"/>
      <text x="32" y="250" fill="#24291F" font-size="15" font-weight="700">Keith Falcon</text>
      <text x="32" y="268" fill="#8A8676" font-size="11">SS · M</text>
      <rect x="196" y="240" width="162" height="30" rx="15" fill="#F0EDE2"/>
      <rect x="198" y="242" width="52" height="26" rx="13" fill="#1F5632"/>
      <text x="224" y="259" text-anchor="middle" fill="#FFF" font-size="11" font-weight="800">IN</text>
      <text x="277" y="259" text-anchor="middle" fill="#8A8676" font-size="11" font-weight="700">TENT</text>
      <text x="331" y="259" text-anchor="middle" fill="#8A8676" font-size="11" font-weight="700">OUT</text>
    </g>
    <!-- Row 2: Jonathan IN -->
    <g>
      <rect x="16" y="292" width="358" height="56" rx="14" fill="#FFFFFF" stroke="#E6E2D4"/>
      <text x="32" y="316" fill="#24291F" font-size="15" font-weight="700">Jonathan Falcon</text>
      <text x="32" y="334" fill="#8A8676" font-size="11">1B · M</text>
      <rect x="196" y="306" width="162" height="30" rx="15" fill="#F0EDE2"/>
      <rect x="198" y="308" width="52" height="26" rx="13" fill="#1F5632"/>
      <text x="224" y="325" text-anchor="middle" fill="#FFF" font-size="11" font-weight="800">IN</text>
      <text x="277" y="325" text-anchor="middle" fill="#8A8676" font-size="11" font-weight="700">TENT</text>
      <text x="331" y="325" text-anchor="middle" fill="#8A8676" font-size="11" font-weight="700">OUT</text>
    </g>
    <!-- Row 3: Ely IN -->
    <g>
      <rect x="16" y="358" width="358" height="56" rx="14" fill="#FFFFFF" stroke="#E6E2D4"/>
      <text x="32" y="382" fill="#24291F" font-size="15" font-weight="700">Ely Rosen</text>
      <text x="32" y="400" fill="#8A8676" font-size="11">2B · F</text>
      <rect x="196" y="372" width="162" height="30" rx="15" fill="#F0EDE2"/>
      <rect x="198" y="374" width="52" height="26" rx="13" fill="#1F5632"/>
      <text x="224" y="391" text-anchor="middle" fill="#FFF" font-size="11" font-weight="800">IN</text>
      <text x="277" y="391" text-anchor="middle" fill="#8A8676" font-size="11" font-weight="700">TENT</text>
      <text x="331" y="391" text-anchor="middle" fill="#8A8676" font-size="11" font-weight="700">OUT</text>
    </g>
    <!-- Row 4: Erin TENTATIVE -->
    <g>
      <rect x="16" y="424" width="358" height="56" rx="14" fill="#FFFFFF" stroke="#E6C87F"/>
      <text x="32" y="448" fill="#24291F" font-size="15" font-weight="700">Erin Walsh</text>
      <text x="32" y="466" fill="#8A8676" font-size="11">C · F</text>
      <rect x="196" y="438" width="162" height="30" rx="15" fill="#F0EDE2"/>
      <rect x="252" y="440" width="52" height="26" rx="13" fill="#D69A2D"/>
      <text x="224" y="457" text-anchor="middle" fill="#8A8676" font-size="11" font-weight="700">IN</text>
      <text x="278" y="457" text-anchor="middle" fill="#FFF" font-size="11" font-weight="800">TENT</text>
      <text x="331" y="457" text-anchor="middle" fill="#8A8676" font-size="11" font-weight="700">OUT</text>
    </g>
    <!-- Row 5: Steven IN -->
    <g>
      <rect x="16" y="490" width="358" height="56" rx="14" fill="#FFFFFF" stroke="#E6E2D4"/>
      <text x="32" y="514" fill="#24291F" font-size="15" font-weight="700">Steven Marks</text>
      <text x="32" y="532" fill="#8A8676" font-size="11">LF · M</text>
      <rect x="196" y="504" width="162" height="30" rx="15" fill="#F0EDE2"/>
      <rect x="198" y="506" width="52" height="26" rx="13" fill="#1F5632"/>
      <text x="224" y="523" text-anchor="middle" fill="#FFF" font-size="11" font-weight="800">IN</text>
      <text x="277" y="523" text-anchor="middle" fill="#8A8676" font-size="11" font-weight="700">TENT</text>
      <text x="331" y="523" text-anchor="middle" fill="#8A8676" font-size="11" font-weight="700">OUT</text>
    </g>
    <!-- Row 6: Robert OUT -->
    <g>
      <rect x="16" y="556" width="358" height="56" rx="14" fill="#FBF7F4" stroke="#E3B7A9"/>
      <text x="32" y="580" fill="#8A8676" font-size="15" font-weight="700">Robert Chen</text>
      <text x="32" y="598" fill="#B4AFA0" font-size="11">RF · M</text>
      <rect x="196" y="570" width="162" height="30" rx="15" fill="#F0EDE2"/>
      <rect x="306" y="572" width="50" height="26" rx="13" fill="#A93B26"/>
      <text x="224" y="589" text-anchor="middle" fill="#8A8676" font-size="11" font-weight="700">IN</text>
      <text x="277" y="589" text-anchor="middle" fill="#8A8676" font-size="11" font-weight="700">TENT</text>
      <text x="331" y="589" text-anchor="middle" fill="#FFF" font-size="11" font-weight="800">OUT</text>
    </g>
    <!-- Row 7: Mike IN -->
    <g>
      <rect x="16" y="622" width="358" height="56" rx="14" fill="#FFFFFF" stroke="#E6E2D4"/>
      <text x="32" y="646" fill="#24291F" font-size="15" font-weight="700">Mike Torres</text>
      <text x="32" y="664" fill="#8A8676" font-size="11">P · M</text>
      <rect x="196" y="636" width="162" height="30" rx="15" fill="#F0EDE2"/>
      <rect x="198" y="638" width="52" height="26" rx="13" fill="#1F5632"/>
      <text x="224" y="655" text-anchor="middle" fill="#FFF" font-size="11" font-weight="800">IN</text>
      <text x="277" y="655" text-anchor="middle" fill="#8A8676" font-size="11" font-weight="700">TENT</text>
      <text x="331" y="655" text-anchor="middle" fill="#8A8676" font-size="11" font-weight="700">OUT</text>
    </g>
    <!-- Row 8: Dana IN (partially visible) -->
    <g>
      <rect x="16" y="688" width="358" height="56" rx="14" fill="#FFFFFF" stroke="#E6E2D4"/>
      <text x="32" y="712" fill="#24291F" font-size="15" font-weight="700">Dana Price</text>
      <text x="32" y="730" fill="#8A8676" font-size="11">3B · F</text>
      <rect x="196" y="702" width="162" height="30" rx="15" fill="#F0EDE2"/>
      <rect x="198" y="704" width="52" height="26" rx="13" fill="#1F5632"/>
      <text x="224" y="721" text-anchor="middle" fill="#FFF" font-size="11" font-weight="800">IN</text>
      <text x="277" y="721" text-anchor="middle" fill="#8A8676" font-size="11" font-weight="700">TENT</text>
      <text x="331" y="721" text-anchor="middle" fill="#8A8676" font-size="11" font-weight="700">OUT</text>
    </g>

    <!-- Copy from last game action -->
    <rect x="16" y="762" width="358" height="48" rx="24" fill="none" stroke="#1F5632" stroke-width="1.5"/>
    <text x="195" y="792" text-anchor="middle" fill="#1F5632" font-size="14" font-weight="700">⟳  Copy availability from last game</text>
  </g>
</svg>
